<svg width="200" height="200" viewBox="0 0 200 200" fill="none" xmlns="http://www.w3.org/2000/svg">
  <!-- Exact recreation of the inspiration image with InvoiceNest colors (icon only, centered) -->
  <g transform="translate(100, 110)">
    <!-- Nest strands - back layer (darker teal) -->
    <path d="M -55 -15 Q -50 -25, -40 -20 Q -30 -15, -20 -22 Q -10 -28, 0 -25 Q 10 -22, 20 -28 Q 30 -22, 40 -25 Q 50 -20, 55 -15"
          fill="none" stroke="#0d9488" stroke-width="8" stroke-linecap="round"/>

    <path d="M -58 -5 Q -48 -12, -38 -8 Q -28 -4, -18 -10 Q -8 -15, 0 -12 Q 8 -9, 18 -14 Q 28 -10, 38 -12 Q 48 -8, 58 -5"
          fill="none" stroke="#0d9488" stroke-width="8" stroke-linecap="round"/>

    <!-- Middle nest layer - amber -->
    <path d="M -60 5 Q -50 -2, -40 2 Q -30 6, -20 0 Q -10 -5, 0 -2 Q 10 1, 20 -4 Q 30 0, 40 -2 Q 50 2, 60 5"
          fill="none" stroke="#f59e0b" stroke-width="8" stroke-linecap="round"/>

    <path d="M -62 15 Q -52 9, -42 13 Q -32 17, -22 11 Q -12 6, 0 9 Q 12 12, 22 7 Q 32 11, 42 9 Q 52 13, 62 15"
          fill="none" stroke="#f59e0b" stroke-width="8" stroke-linecap="round"/>

    <!-- Front nest layer - sage/light teal -->
    <path d="M -65 25 Q -55 20, -45 24 Q -35 28, -25 22 Q -15 17, 0 20 Q 15 23, 25 18 Q 35 22, 45 20 Q 55 24, 65 25"
          fill="none" stroke="#10b981" stroke-width="8" stroke-linecap="round"/>

    <!-- Bottom nest fill -->
    <ellipse cx="0" cy="35" rx="65" ry="20" fill="#0d9488" opacity="0.08"/>

    <!-- Invoice document -->
    <g transform="translate(0, -30)">
      <!-- Document shadow -->
      <rect x="-28" y="-28" width="56" height="75" rx="4" fill="#000" opacity="0.08" transform="translate(2, 2)"/>

      <!-- Document body -->
      <rect x="-28" y="-28" width="56" height="75" rx="4" fill="white" stroke="#2d3748" stroke-width="2.5"/>

      <!-- Folded corner -->
      <path d="M 18 -28 L 28 -18 L 18 -18 Z" fill="#e2e8f0"/>
      <path d="M 18 -28 L 28 -18" stroke="#2d3748" stroke-width="2.5"/>
      <path d="M 18 -28 L 18 -18 L 28 -18" stroke="#2d3748" stroke-width="2.5" fill="none"/>

      <!-- Document lines -->
      <line x1="-18" y1="-12" x2="10" y2="-12" stroke="#2d3748" stroke-width="2.5" stroke-linecap="round"/>
      <line x1="-18" y1="-2" x2="18" y2="-2" stroke="#2d3748" stroke-width="2.5" stroke-linecap="round"/>
      <line x1="-18" y1="8" x2="18" y2="8" stroke="#2d3748" stroke-width="2.5" stroke-linecap="round"/>
      <line x1="-18" y1="18" x2="18" y2="18" stroke="#2d3748" stroke-width="2.5" stroke-linecap="round"/>

      <!-- Button/box at bottom -->
      <rect x="-18" y="28" width="36" height="12" rx="2" fill="#2d3748"/>
    </g>
  </g>
</svg>